{"extensionsUsed" : ["KHR_materials_unlit"], "accessors" : [{"bufferView" : 0, "byteOffset" : 0, "componentType" : 5123, "count" : 30, "type" : "SCALAR", "max" : [29], "min" : [0]}, {"bufferView" : 1, "byteOffset" : 0, "componentType" : 5126, "count" : 30, "type" : "VEC3", "max" : [0.5, 0.10000000149011612, 0.5], "min" : [-0.5, 0, -0.5], "name" : "POSITION"}, {"bufferView" : 1, "byteOffset" : 12, "componentType" : 5126, "count" : 30, "type" : "VEC3", "max" : [1.0000044107437134, 0, 1.0000044107437134], "min" : [-1.0000044107437134, -1.0000044107437134, -1.0000044107437134], "name" : "NORMAL"}, {"bufferView" : 1, "byteOffset" : 24, "componentType" : 5126, "count" : 30, "type" : "VEC2", "max" : [19.685039520263672, 19.685039520263672], "min" : [-19.685039520263672, -19.685039520263672], "name" : "TEXCOORD_0"}, {"bufferView" : 0, "byteOffset" : 60, "componentType" : 5123, "count" : 30, "type" : "SCALAR", "max" : [29], "min" : [0]}, {"bufferView" : 2, "byteOffset" : 0, "componentType" : 5126, "count" : 30, "type" : "VEC3", "max" : [0.5, 0.20000000298023224, 0.5], "min" : [-0.5, 0.10000000149011612, -0.5], "name" : "POSITION"}, {"bufferView" : 2, "byteOffset" : 12, "componentType" : 5126, "count" : 30, "type" : "VEC3", "max" : [1.0000044107437134, 1.0000044107437134, 1.0000044107437134], "min" : [-1.0000044107437134, 0, -1.0000044107437134], "name" : "NORMAL"}, {"bufferView" : 2, "byteOffset" : 24, "componentType" : 5126, "count" : 30, "type" : "VEC2", "max" : [19.685039520263672, 19.685039520263672], "min" : [-19.685039520263672, -19.685039520263672], "name" : "TEXCOORD_0"}, {"bufferView" : 0, "byteOffset" : 120, "componentType" : 5123, "count" : 294, "type" : "SCALAR", "max" : [279], "min" : [0]}, {"bufferView" : 3, "byteOffset" : 0, "componentType" : 5126, "count" : 280, "type" : "VEC3", "max" : [0.5, 1.5199999809265137, 0.5], "min" : [-0.5, 0.30000001192092896, -0.5], "name" : "POSITION"}, {"bufferView" : 3, "byteOffset" : 12, "componentType" : 5126, "count" : 280, "type" : "VEC3", "max" : [0.9238835573196411, 1.0000044107437134, 0.9238835573196411], "min" : [-0.9238835573196411, -1.0000044107437134, -0.9238835573196411], "name" : "NORMAL"}, {"bufferView" : 3, "byteOffset" : 24, "componentType" : 5126, "count" : 280, "type" : "VEC2", "max" : [19.685039520263672, 54.031002044677734], "min" : [-19.685039520263672, -19.685039520263672], "name" : "TEXCOORD_0"}, {"bufferView" : 0, "byteOffset" : 708, "componentType" : 5123, "count" : 30, "type" : "SCALAR", "max" : [29], "min" : [0]}, {"bufferView" : 4, "byteOffset" : 0, "componentType" : 5126, "count" : 30, "type" : "VEC3", "max" : [0.125, 0.30000001192092896, 0.125], "min" : [-0.125, 0, -0.125], "name" : "POSITION"}, {"bufferView" : 4, "byteOffset" : 12, "componentType" : 5126, "count" : 30, "type" : "VEC3", "max" : [0.9980570077896118, 0.06237856298685074, 0.9980570077896118], "min" : [-0.9980570077896118, -1.0000044107437134, -0.9980570077896118], "name" : "NORMAL"}, {"bufferView" : 4, "byteOffset" : 24, "componentType" : 5126, "count" : 30, "type" : "VEC2", "max" : [4.921259880065918, 11.527090072631836], "min" : [-4.921259880065918, -4.921259880065918], "name" : "TEXCOORD_0"}], "asset" : {"generator" : "Aspose.3D 24.1.0", "version" : "2.0"}, "buffers" : [{"uri" : "data:application/octet-stream;base64,", "byteLength" : 13076}], "bufferViews" : [{"buffer" : 0, "byteOffset" : 0, "byteLength" : 768, "target" : 34963}, {"buffer" : 0, "byteOffset" : 772, "byteLength" : 960, "byteStride" : 32, "target" : 34962}, {"buffer" : 0, "byteOffset" : 1736, "byteLength" : 960, "byteStride" : 32, "target" : 34962}, {"buffer" : 0, "byteOffset" : 2700, "byteLength" : 9408, "byteStride" : 32, "target" : 34962}, {"buffer" : 0, "byteOffset" : 12112, "byteLength" : 960, "byteStride" : 32, "target" : 34962}], "materials" : [{"name" : "dirt", "pbrMetallicRoughness" : {"baseColorFactor" : [0.9764706, 0.7137255, 0.4509804, 1], "metallicFactor" : 1, "roughnessFactor" : 1}, "emissiveFactor" : [0, 0, 0], "alphaMode" : "OPAQUE", "doubleSided" : false}, {"name" : "foliage", "pbrMetallicRoughness" : {"baseColorFactor" : [0.266666681, 0.709803939, 0.5529412, 1], "metallicFactor" : 1, "roughnessFactor" : 1}, "emissiveFactor" : [0, 0, 0], "alphaMode" : "OPAQUE", "doubleSided" : false}, {"name" : "foliage", "pbrMetallicRoughness" : {"baseColorFactor" : [0.266666681, 0.709803939, 0.5529412, 1], "metallicFactor" : 1, "roughnessFactor" : 1}, "emissiveFactor" : [0, 0, 0], "alphaMode" : "OPAQUE", "doubleSided" : false}, {"name" : "wood", "pbrMetallicRoughness" : {"baseColorFactor" : [0.8784314, 0.533333361, 0.360784322, 1], "metallicFactor" : 1, "roughnessFactor" : 1}, "emissiveFactor" : [0, 0, 0], "alphaMode" : "OPAQUE", "doubleSided" : false}], "meshes" : [{"primitives" : [{"attributes" : {"POSITION" : 1, "NORMAL" : 2, "TEXCOORD_0" : 3}, "indices" : 0, "material" : 0, "mode" : 4}, {"attributes" : {"POSITION" : 5, "NORMAL" : 6, "TEXCOORD_0" : 7}, "indices" : 4, "material" : 1, "mode" : 4}]}, {"primitives" : [{"attributes" : {"POSITION" : 9, "NORMAL" : 10, "TEXCOORD_0" : 11}, "indices" : 8, "material" : 2, "mode" : 4}, {"attributes" : {"POSITION" : 13, "NORMAL" : 14, "TEXCOORD_0" : 15}, "indices" : 12, "material" : 3, "mode" : 4}]}], "nodes" : [{"matrix" : [0.5, 0, 0, 0, 0, 0.5, 0, 0, 0, 0, 0.5, 0, 0, 0.2, 0, 1], "mesh" : 1, "name" : "tree"}, {"children" : [0], "mesh" : 0, "name" : "tile_tree"}], "scene" : 0, "scenes" : [{"nodes" : [1]}]}