{"extensionsUsed" : ["KHR_materials_unlit", "KHR_texture_transform", "VRM"], "accessors" : [{"bufferView" : 0, "byteOffset" : 0, "componentType" : 5123, "count" : 150, "type" : "SCALAR", "max" : [146], "min" : [0]}, {"bufferView" : 1, "byteOffset" : 0, "componentType" : 5126, "count" : 147, "type" : "VEC3", "max" : [0.18252019584178925, 1.0454399585723877, 0.14431999623775482], "min" : [-0.14431999623775482, 0, -0.18271522223949432], "name" : "POSITION"}, {"bufferView" : 1, "byteOffset" : 12, "componentType" : 5126, "count" : 147, "type" : "VEC3", "max" : [0.9990381002426147, 0.9975672960281372, 0.9990381002426147], "min" : [-0.9990381002426147, -1.0000044107437134, -0.9990381002426147], "name" : "NORMAL"}, {"bufferView" : 1, "byteOffset" : 24, "componentType" : 5126, "count" : 147, "type" : "VEC2", "max" : [7.056818962097168, 41.02311706542969], "min" : [-7.072293281555176, -5.681889533996582], "name" : "TEXCOORD_0"}, {"bufferView" : 0, "byteOffset" : 300, "componentType" : 5123, "count" : 246, "type" : "SCALAR", "max" : [238], "min" : [0]}, {"bufferView" : 2, "byteOffset" : 0, "componentType" : 5126, "count" : 239, "type" : "VEC3", "max" : [0.5092920064926147, 2.7506399154663086, 0.5092920064926147], "min" : [-0.5092920064926147, 1.0454399585723877, -0.5092920064926147], "name" : "POSITION"}, {"bufferView" : 2, "byteOffset" : 12, "componentType" : 5126, "count" : 239, "type" : "VEC3", "max" : [0.9949259161949158, 0.9033167958259583, 0.9949259161949158], "min" : [-0.9949259161949158, -1.0000044107437134, -0.9949259161949158], "name" : "NORMAL"}, {"bufferView" : 2, "byteOffset" : 24, "componentType" : 5126, "count" : 239, "type" : "VEC2", "max" : [15.543307304382324, 95.35353088378906], "min" : [-15.543307304382324, -15.54330825805664], "name" : "TEXCOORD_0"}], "asset" : {"generator" : "Aspose.3D 24.1.0", "version" : "2.0"}, "buffers" : [{"uri" : "data:application/octet-stream;base64,", "byteLength" : 13476}], "bufferViews" : [{"buffer" : 0, "byteOffset" : 0, "byteLength" : 792, "target" : 34963}, {"buffer" : 0, "byteOffset" : 796, "byteLength" : 4800, "byteStride" : 32, "target" : 34962}, {"buffer" : 0, "byteOffset" : 5600, "byteLength" : 7872, "byteStride" : 32, "target" : 34962}], "materials" : [{"name" : "wood", "pbrMetallicRoughness" : {"baseColorFactor" : [0.817612767, 0.3259756, 0.159483135, 1], "metallicFactor" : 1, "roughnessFactor" : 1}, "emissiveFactor" : [0, 0, 0], "alphaMode" : "OPAQUE", "doubleSided" : false}, {"name" : "foliage", "pbrMetallicRoughness" : {"baseColorFactor" : [0.05448027, 0.5906189, 0.322534174, 1], "metallicFactor" : 1, "roughnessFactor" : 1}, "emissiveFactor" : [0, 0, 0], "alphaMode" : "OPAQUE", "doubleSided" : false}], "meshes" : [{"primitives" : [{"attributes" : {"POSITION" : 1, "NORMAL" : 2, "TEXCOORD_0" : 3}, "indices" : 0, "material" : 0, "mode" : 4}, {"attributes" : {"POSITION" : 5, "NORMAL" : 6, "TEXCOORD_0" : 7}, "indices" : 4, "material" : 1, "mode" : 4}]}], "nodes" : [{"mesh" : 0, "name" : "treeHighRound"}], "scene" : 0, "scenes" : [{"nodes" : [0]}], "extensions" : {"VRM" : {"blendShapeMaster" : {"blendShapeGroups" : []}, "exporterVersion" : "UniVRM-0.98.0", "firstPerson" : {"firstPersonBoneOffset" : {"x" : 0, "y" : 0, "z" : 0}, "lookAtHorizontalInner" : {"xRange" : 90, "yRange" : 10}, "lookAtHorizontalOuter" : {"xRange" : 90, "yRange" : 10}, "lookAtTypeName" : "Bone", "lookAtVerticalDown" : {"xRange" : 90, "yRange" : 10}, "lookAtVerticalUp" : {"xRange" : 90, "yRange" : 10}, "meshAnnotations" : []}, "humanoid" : {"armStretch" : 0.05, "feetSpacing" : 0, "hasTranslationDoF" : false, "humanBones" : [], "legStretch" : 0.05, "lowerArmTwist" : 0.5, "lowerLegTwist" : 0.5, "upperArmTwist" : 0.5, "upperLegTwist" : 0.5}, "materialProperties" : [{"floatProperties" : {}, "keywordMap" : {}, "name" : "wood", "renderQueue" : 2000, "shader" : "VRM_USE_GLTFSHADER", "tagMap" : {}, "textureProperties" : {}, "vectorProperties" : {}}, {"floatProperties" : {}, "keywordMap" : {}, "name" : "foliage", "renderQueue" : 2000, "shader" : "VRM_USE_GLTFSHADER", "tagMap" : {}, "textureProperties" : {}, "vectorProperties" : {}}], "meta" : {"allowedUserName" : "OnlyAuthor", "commercialUssageName" : "Disallow", "licenseName" : "Redistribution_Prohibited", "sexualUssageName" : "Disallow", "violentUssageName" : "Disallow"}, "secondaryAnimation" : {"boneGroups" : [], "colliderGroups" : []}, "specVersion" : "0.0"}}}